# xmcd CD database file
#
# Track frame offsets:
#	150
#	20572
#	43672
#	65207
#	88210
#	106817
#	134020
#	154775
#	175145
#	196682
#	218400
#	242670
#
# Disc length: 3433 seconds
#
# Revision: 0
# Processed by: cddbd v1.5.2PL0 Copyright (c) Steve Scherf et al.
# Submitted via: CDex 1.70beta2
#
DISCID=a40d670c
DTITLE=Danny Lerman - Do You Feel?
DYEAR=1992
DGENRE=Jazz
TTITLE0=Do You Feel? (sax)
TTITLE1=With Our Love
TTITLE2=Dream of Me Tonight
TTITLE3=Simple Melody
TTITLE4=Simple Melody "Refrain"
TTITLE5=Ay Yi Yi
TTITLE6=Only My Heart Knows
TTITLE7=Do You Feel? (vocal)
TTITLE8=Flora's Tune
TTITLE9=Alexandra the Great
TTITLE10=Why Can't You Give Me Forever?
TTITLE11=Why Don't We?
EXTD=YEAR: 1992
EXTT0=
EXTT1=
EXTT2=
EXTT3=
EXTT4=
EXTT5=
EXTT6=
EXTT7=
EXTT8=
EXTT9=
EXTT10=
EXTT11=
PLAYORDER=
